<?xml version="1.0" standalone="no"?>
<!DOCTYPE svg PUBLIC "-//W3C//DTD SVG 20010904//EN"
 "http://www.w3.org/TR/2001/REC-SVG-20010904/DTD/svg10.dtd">
<svg version="1.0" xmlns="http://www.w3.org/2000/svg"
 width="192.000000pt" height="192.000000pt" viewBox="0 0 192.000000 192.000000"
 preserveAspectRatio="xMidYMid meet">
<metadata>
Created by potrace 1.11, written by Peter Selinger 2001-2013
</metadata>
<g transform="translate(0.000000,192.000000) scale(0.100000,-0.100000)"
fill="#000000" stroke="none">
<path d="M0 950 l0 -580 125 0 125 0 0 370 c0 204 3 370 8 370 4 0 79 -108
166 -240 88 -133 163 -237 167 -233 7 8 224 339 284 435 17 26 33 47 38 48 4
0 7 -169 7 -375 l0 -375 130 0 130 0 0 235 0 235 240 0 240 0 0 -235 0 -235
125 0 125 0 0 580 0 580 -125 0 -125 0 0 -230 0 -230 -240 0 -240 0 0 230 0
231 -142 -3 -142 -3 -148 -235 c-81 -129 -152 -235 -158 -235 -9 0 -79 107
-262 400 l-47 75 -141 0 -140 0 0 -580z"/>
</g>
</svg>
